<svg width="25" height="24" viewBox="0 0 25 24" fill="none" xmlns="http://www.w3.org/2000/svg">
<path d="M13.5 22H5.5C3.5 22 2.5 21 2.5 19V11C2.5 9 3.5 8 5.5 8H10.5V19C10.5 21 11.5 22 13.5 22Z" stroke="#0075FF" stroke-width="1.5" stroke-miterlimit="10" stroke-linecap="round" stroke-linejoin="round"/>
<path d="M10.61 4C10.53 4.3 10.5 4.63 10.5 5V8H5.5V6C5.5 4.9 6.4 4 7.5 4H10.61Z" stroke="#0075FF" stroke-width="1.5" stroke-miterlimit="10" stroke-linecap="round" stroke-linejoin="round"/>
<path d="M14.5 8V13" stroke="#0075FF" stroke-width="1.5" stroke-miterlimit="10" stroke-linecap="round" stroke-linejoin="round"/>
<path d="M18.5 8V13" stroke="#0075FF" stroke-width="1.5" stroke-miterlimit="10" stroke-linecap="round" stroke-linejoin="round"/>
<path d="M17.5 17H15.5C14.95 17 14.5 17.45 14.5 18V22H18.5V18C18.5 17.45 18.05 17 17.5 17Z" stroke="#0075FF" stroke-width="1.5" stroke-miterlimit="10" stroke-linecap="round" stroke-linejoin="round"/>
<path d="M6.5 13V17" stroke="#0075FF" stroke-width="1.5" stroke-miterlimit="10" stroke-linecap="round" stroke-linejoin="round"/>
<path d="M10.5 19V5C10.5 3 11.5 2 13.5 2H19.5C21.5 2 22.5 3 22.5 5V19C22.5 21 21.5 22 19.5 22H13.5C11.5 22 10.5 21 10.5 19Z" stroke="#0075FF" stroke-width="1.5" stroke-miterlimit="10" stroke-linecap="round" stroke-linejoin="round"/>
</svg>
