<svg width="21" height="22" viewBox="0 0 21 22" fill="none" xmlns="http://www.w3.org/2000/svg">
<path d="M8.6855 2.21707C9.66958 2.22072 10.65 2.22072 11.6341 2.22436C11.7799 2.22436 11.8236 2.16602 11.82 2.02745C11.8127 1.73573 11.8127 1.44401 11.8164 1.15229C11.8236 0.49957 12.1954 0.087516 12.8369 0.021879C13.0665 0 13.2961 0 13.5294 0C15.3736 0.0036465 17.2179 0.0036465 19.0622 0.0036465C19.3319 0.0036465 19.5979 0.0109395 19.8458 0.131274C20.0098 0.20785 20.1556 0.302659 20.2285 0.477691C20.1993 0.532389 20.2431 0.5725 20.2649 0.605319C20.4217 0.809523 20.4326 1.0429 20.4289 1.29086C20.4217 3.56628 20.4362 5.84169 20.4217 8.11711C20.4217 8.1791 20.3925 8.26661 20.4763 8.31767C20.3961 8.80265 20.0863 9.17459 19.6854 9.26575C19.5834 9.29857 19.4813 9.28034 19.3793 9.28034C18.7195 9.29493 18.0562 9.26211 17.3965 9.26211C17.371 9.26211 17.3491 9.26211 17.3236 9.26211C17.2835 9.25846 17.2325 9.25846 17.2325 9.20012C17.2325 9.14907 17.2689 9.12354 17.3127 9.11625C17.4329 9.09072 17.5532 9.10166 17.6771 9.10166C18.0161 9.09802 18.0781 9.03967 18.0963 8.70419C18.0963 8.69325 18.0963 8.67867 18.0963 8.66773C18.0744 7.78163 18.1728 6.89553 18.1291 6.00943C18.0854 5.1598 18.1182 4.31016 18.0926 3.46053C18.0817 3.06671 17.9797 2.70206 17.5787 2.5015C17.4074 2.41763 17.2325 2.39575 17.0502 2.39575C15.7928 2.39575 14.5354 2.3921 13.2779 2.3994C12.9499 2.3994 12.6255 2.3447 12.2975 2.35928C11.984 2.37387 11.9075 2.43951 11.9002 2.74581C11.8965 3.09223 11.8965 3.43865 11.9002 3.78507C11.9002 3.92728 11.9257 4.0622 11.9731 4.19712C12.0132 4.30652 11.9658 4.35392 11.8564 4.36486C11.5867 4.39403 11.317 4.45238 11.0437 4.44144C10.5443 4.51437 10.2819 4.78056 10.2199 5.28742C10.209 5.364 10.1908 5.44058 10.1908 5.5208C10.0924 6.32303 10.1179 7.12891 10.1179 7.93478C10.1179 8.17181 10.1142 8.40518 10.1653 8.63856C10.2054 8.82453 10.2127 9.02509 10.1616 9.2147C10.0997 9.29128 10.0122 9.28399 9.92836 9.28399C9.35978 9.28399 8.79119 9.28399 8.22261 9.28399C7.92738 9.25846 7.63216 9.28034 7.33693 9.28034C7.20572 9.28034 7.07086 9.28034 6.93601 9.28399C6.88498 9.28399 6.83395 9.28034 6.83031 9.2147C6.82666 9.15636 6.86676 9.12719 6.91778 9.11625C6.95788 9.10531 7.00161 9.10166 7.04535 9.10166C7.68318 9.10531 8.32102 9.09802 8.95521 9.06155C9.15567 9.05061 9.35249 9.09802 9.55295 9.09802C9.84453 9.09802 9.92836 9.02144 9.93201 8.73701C9.93565 8.37966 9.9393 8.01865 9.93201 7.6613C9.92836 7.39875 9.85182 7.31852 9.59304 7.31852C8.52877 7.31123 7.46814 7.31488 6.40387 7.31852C6.29817 7.31852 6.19976 7.3404 6.105 7.38416C5.96285 7.44615 5.92641 7.42063 5.92641 7.25653C5.92641 6.57464 5.92641 5.89639 5.92641 5.21449C5.92641 5.14156 5.94827 5.06863 5.90818 4.99935C5.90818 4.79515 5.90454 4.59094 5.90454 4.38674C5.81342 4.22265 5.81342 4.04397 5.81706 3.86164C5.82071 3.65015 5.81706 3.43865 5.81706 3.22715C5.81706 2.86615 5.98108 2.59266 6.26172 2.38481C6.33097 2.33376 6.37836 2.26812 6.43667 2.20978C6.45854 2.19884 6.48041 2.19519 6.50228 2.19884C6.75377 2.19155 7.00526 2.19884 7.25675 2.20978C7.56291 2.22072 7.86907 2.23895 8.17523 2.16602C8.3028 2.13685 8.43765 2.1332 8.57251 2.16602C8.59073 2.17696 8.6126 2.18425 8.63082 2.19155C8.64905 2.19519 8.66727 2.20613 8.6855 2.21707Z" fill="#FED701"/>
<path d="M10.9707 4.33924C11.2077 4.26631 11.4519 4.31372 11.6961 4.30642C11.8309 4.30278 11.8965 4.28819 11.8491 4.12045C11.7689 3.82509 11.82 3.51513 11.8127 3.21247C11.809 2.97545 11.8054 2.73843 11.82 2.50141C11.8309 2.29356 11.8856 2.2498 12.0933 2.25709C13.7736 2.31908 15.4538 2.28991 17.134 2.29356C17.7682 2.29356 18.1546 2.71655 18.1874 3.32916C18.1947 3.46773 18.191 3.60994 18.1874 3.74851C18.1655 4.68931 18.2275 5.6301 18.2238 6.5709C18.2202 7.39136 18.1947 8.20818 18.1801 9.02864C18.1765 9.14533 18.1254 9.19273 18.0124 9.18909C17.7901 9.18544 17.5641 9.18909 17.3418 9.20003C18.1218 9.24378 18.9054 9.2766 19.6854 9.26202C19.6016 9.30942 19.5068 9.29848 19.4193 9.29848C18.7013 9.29848 17.9869 9.2766 17.2689 9.30578C16.7222 9.32765 16.3614 8.87913 16.365 8.38686C16.3759 7.39866 16.3723 6.40681 16.3723 5.41496C16.3723 5.08313 16.2775 4.80235 16.026 4.56533C15.8329 4.38665 15.6105 4.32101 15.3627 4.31007C15.1586 4.29913 14.9508 4.31372 14.7431 4.30642C14.5936 4.29913 14.539 4.36477 14.5426 4.51063C14.5499 5.0102 14.5536 5.50612 14.5536 6.00569C14.5536 6.80063 14.5572 7.59557 14.5463 8.3905C14.5426 8.81714 14.2292 9.15991 13.7772 9.26202C13.7153 9.29484 13.646 9.2766 13.5804 9.2766C12.7785 9.2766 11.9803 9.2839 11.1785 9.25837C10.9051 9.25108 10.6354 9.29119 10.3621 9.2766C10.3074 9.27296 10.2272 9.30578 10.2163 9.21461C10.2053 9.12345 10.2782 9.11251 10.3475 9.09792C10.5261 9.06875 10.7047 9.04687 10.8906 9.07605C11.0874 9.10886 11.2915 9.10157 11.4883 9.08334C11.656 9.06875 11.7216 8.99218 11.7434 8.82808C11.7544 8.75515 11.7507 8.68222 11.7507 8.60929C11.7507 7.36584 11.7507 6.12238 11.7507 4.87528C11.7507 4.81329 11.7507 4.75494 11.7471 4.69295C11.7289 4.50334 11.6632 4.4377 11.4701 4.42676C11.3607 4.41947 11.2514 4.42676 11.142 4.41947C11.0801 4.42311 10.9963 4.4377 10.9707 4.33924Z" fill="#FFC000"/>
<path d="M14.5463 4.33936C14.5499 4.72588 14.5499 5.04678 14.5536 5.27286C14.5572 5.90006 14.5609 6.12249 14.5645 6.60383C14.5681 7.56651 14.5609 7.39512 14.5645 7.50452C14.5754 7.76706 14.5973 8.02961 14.5463 8.38697C14.5208 8.58388 14.5025 8.68598 14.4442 8.79902C14.2766 9.11262 13.9303 9.22566 13.7809 9.26578C13.7444 9.26942 13.6715 9.28036 13.5841 9.28036C12.7822 9.28036 11.984 9.28765 11.1822 9.26213C10.9088 9.25484 10.6391 9.29495 10.3657 9.28036C10.3111 9.27672 10.2309 9.30953 10.2199 9.21837C10.209 9.12721 10.2819 9.11627 10.3511 9.10168C10.5297 9.07251 10.7083 9.05063 10.8942 9.0798C11.091 9.11262 11.2951 9.10533 11.492 9.0871C11.6596 9.07251 11.7252 8.99594 11.7471 8.83184C11.758 8.75891 11.7544 8.68598 11.7544 8.61305C11.7544 8.55106 11.7471 7.32948 11.7544 4.87904C11.7544 4.76964 11.7544 4.58002 11.758 4.33936C12.6874 4.343 13.6169 4.33936 14.5463 4.33936Z" fill="#95D131"/>
<path d="M15.5626 13.3623C15.5626 13.9674 15.5722 14.5725 15.5562 15.1776C15.5467 15.5895 15.2561 15.8778 14.7963 15.9918C14.7452 16.0172 14.691 16.0045 14.6399 16.0045C13.1552 16.0045 11.6704 16.0045 10.1889 16.0045C9.97499 16.0045 9.96222 15.9886 9.98138 15.7764C9.99096 15.656 9.99415 15.5324 9.99415 15.4121C9.99415 13.8882 9.99415 12.3612 9.99415 10.8373C9.99415 10.5269 9.99415 10.5269 10.3103 10.5269C10.7477 10.5269 11.1819 10.5269 11.6194 10.5269C11.7183 10.5807 11.6832 10.6758 11.6832 10.7518C11.6864 11.5597 11.6864 12.3643 11.6864 13.1722C11.6864 13.2926 11.6896 13.413 11.7151 13.5334C11.795 13.9421 12.0696 14.1923 12.491 14.224C12.6092 14.2335 12.7241 14.2304 12.8422 14.2304C13.5766 14.2304 14.3078 14.2304 15.0422 14.2304C15.0997 14.2304 15.1603 14.2335 15.2178 14.2272C15.387 14.2145 15.4445 14.1607 15.4541 13.9927C15.4637 13.8248 15.4509 13.6538 15.4605 13.4859C15.4605 13.4288 15.4477 13.3401 15.5626 13.3623Z" fill="#4FB92B"/>
<path d="M4.9355 13.3623C4.9355 13.9674 4.92611 14.5725 4.94176 15.1776C4.95115 15.5895 5.23601 15.8778 5.68678 15.9918C5.73687 16.0172 5.79008 16.0045 5.84017 16.0045C7.29577 16.0045 8.75138 16.0045 10.2038 16.0045C10.4136 16.0045 10.4261 15.9886 10.4073 15.7764C10.3979 15.656 10.3948 15.5324 10.3948 15.4121C10.3948 13.8882 10.3948 12.3612 10.3948 10.8373C10.3948 10.5269 10.3948 10.5269 10.0849 10.5269C9.65604 10.5269 9.23032 10.5269 8.80146 10.5269C8.70442 10.5807 8.73885 10.6758 8.73885 10.7518C8.73572 11.5597 8.73572 12.3643 8.73572 13.1722C8.73572 13.2926 8.73259 13.413 8.70755 13.5334C8.62929 13.9421 8.36008 14.1923 7.94688 14.224C7.83106 14.2335 7.71837 14.2304 7.60254 14.2304C6.88257 14.2304 6.16572 14.2304 5.44575 14.2304C5.3894 14.2304 5.32992 14.2335 5.27358 14.2272C5.10767 14.2145 5.05133 14.1607 5.04193 13.9927C5.03254 13.8248 5.04506 13.6538 5.03567 13.4859C5.03567 13.4288 5.04506 13.3401 4.9355 13.3623Z" fill="#EC202A"/>
<path d="M11.6498 10.5269C12.7091 10.5269 13.7685 10.5301 14.8278 10.5301C15.3368 10.6945 15.5563 10.9782 15.5626 11.5198C15.569 12.1453 15.5626 12.7708 15.5626 13.3962C15.499 13.6445 15.5404 13.8959 15.534 14.1474C15.5245 14.3634 15.5308 14.3634 15.3113 14.3634C14.4079 14.3634 13.5012 14.3634 12.5978 14.3634C11.9965 14.3634 11.6307 14.0088 11.6243 13.4027C11.6148 12.5064 11.6212 11.6101 11.6243 10.7171C11.6212 10.6526 11.6402 10.5881 11.6498 10.5269Z" fill="#9ACD2B"/>
<path d="M6.48041 2.29718C6.105 2.56702 5.86809 2.90615 5.89725 3.39842C5.91911 3.72661 5.90089 4.05479 5.90089 4.38298C5.87173 4.34287 5.83164 4.3137 5.78061 4.3137C5.45987 4.31734 5.13549 4.27723 4.82204 4.35745C4.43934 4.45591 4.17691 4.75857 4.1186 5.15239C4.08944 5.35659 4.08944 5.56445 4.08944 5.76865C4.08944 6.64381 4.07122 7.51897 4.09673 8.39048C4.11131 8.99945 3.61926 9.29846 3.20012 9.29846C2.49668 9.29846 1.79323 9.30211 1.08979 9.30575C1.00596 9.30575 0.91849 9.3094 0.841949 9.26199C0.878397 9.1526 0.976806 9.17448 1.05699 9.17083C1.31941 9.16354 1.57819 9.17083 1.84062 9.16719C2.1322 9.15989 2.20145 9.08696 2.21238 8.79524C2.28163 7.0121 2.24154 5.22532 2.24154 3.44218C2.24154 3.17234 2.26705 2.92803 2.42742 2.71288C2.61331 2.46857 2.83928 2.26801 3.16731 2.23884C3.91085 2.1732 4.65802 2.19508 5.4052 2.2279C5.69678 2.24248 5.98836 2.24613 6.2763 2.19143C6.35284 2.18414 6.48041 2.1258 6.48041 2.29718Z" fill="#0098B8"/>
<path d="M20.4763 8.31776C20.4362 8.38704 20.3961 8.45632 20.3378 8.55113C20.4034 8.03333 20.3669 7.5447 20.3706 7.05972C20.3742 5.14895 20.3706 3.23818 20.3742 1.32742C20.3742 1.07581 20.3669 0.831494 20.2175 0.612704C20.192 0.576239 20.1191 0.514248 20.2284 0.477783C20.3669 0.634583 20.4654 0.813261 20.4799 1.0284C20.4581 1.07581 20.4654 1.12321 20.4654 1.17062C20.4654 2.67662 20.4654 4.18263 20.4654 5.69228C20.4654 5.73968 20.4544 5.79073 20.4799 5.83449C20.4763 6.66225 20.4763 7.49 20.4763 8.31776Z" fill="#FED701"/>
<path d="M20.4763 5.83439C20.4399 5.74687 20.4435 5.65571 20.4435 5.56455C20.4435 4.13512 20.4435 2.70569 20.4435 1.27627C20.4435 1.1924 20.4399 1.10488 20.4727 1.02466C20.4763 1.7102 20.48 2.39574 20.48 3.08128C20.4836 4.0002 20.48 4.91912 20.4763 5.83439Z" fill="#FED701"/>
<path d="M8.64179 2.22435C8.64179 1.91075 8.62721 1.59715 8.64179 1.28356C8.65273 1.01007 8.59806 0.75846 8.496 0.510498C8.67095 0.652712 8.67824 0.856915 8.68189 1.05747C8.68917 1.444 8.68553 1.83053 8.68917 2.21706C8.67095 2.22071 8.65637 2.22435 8.64179 2.22435Z" fill="#6C6C6C"/>
<path d="M10.096 5.43701C10.096 6.68776 10.096 7.94216 10.096 9.19291C10.0523 9.10904 10.0596 9.01423 10.0596 8.92671C10.0596 7.85464 10.0596 6.77892 10.0596 5.70685C10.0596 5.61204 10.0523 5.52088 10.096 5.43701Z" fill="#929292"/>
<path d="M6.49133 2.30102C7.19842 2.15151 7.91644 2.25726 8.63081 2.23173C8.55792 2.27185 8.47773 2.26455 8.40119 2.26455C7.98569 2.26455 7.56654 2.26455 7.15104 2.26455C6.99431 2.26455 6.83759 2.24997 6.68815 2.31925C6.62254 2.34842 6.55329 2.33384 6.49133 2.30102Z" fill="#B4B4B4"/>
<path d="M8.65638 1.09047C8.66367 0.878971 8.61264 0.685706 8.49236 0.514321C8.33928 0.229894 8.09144 0.084034 7.77799 0.047569C7.62855 0.0293365 7.47547 0.0147505 7.32604 0.0147505C6.97249 0.011104 6.6226 0.02569 6.26905 0.0220435C4.55237 0.00381101 2.83568 0.0293365 1.11899 0.032983C1.03516 0.032983 0.947688 0.0293365 0.871148 0.0730945C0.776384 0.0658015 0.696199 0.09862 0.616014 0.142378C0.229668 0.361168 0.0146269 0.703939 0.0109822 1.13787C4.78562e-05 3.48986 0.00369263 5.8455 0.0073374 8.20114C0.0073374 8.74082 0.313498 9.11277 0.8347 9.26592C1.2174 9.26592 1.6001 9.26592 1.9828 9.26592C2.29625 9.26592 2.29625 9.26227 2.29625 8.95232C2.29625 7.07073 2.2999 5.18913 2.29261 3.30754C2.28896 2.81526 2.7154 2.40321 3.14913 2.34486C3.8307 2.2537 4.51592 2.31569 5.20113 2.31569C5.57655 2.31569 5.95196 2.37039 6.32372 2.28287C6.3784 2.26829 6.43307 2.27193 6.48409 2.30111L6.49503 2.30475C6.55334 2.33392 6.62624 2.34122 6.66998 2.3084C6.76839 2.23182 6.87408 2.25005 6.98343 2.25005C7.21305 2.24641 7.44267 2.2537 7.67593 2.25005C7.99667 2.24276 8.31741 2.26829 8.63815 2.23547L8.64909 2.23182C8.67825 1.84894 8.64544 1.4697 8.65638 1.09047Z" fill="#0BBCEA"/>
<path d="M5.91546 7.16895H10.096V9.30579H6.69909C6.69909 9.30579 5.95191 9.06148 5.91546 8.37958C5.87901 7.69769 5.91546 7.16895 5.91546 7.16895Z" fill="#FDBE00"/>
<path d="M11.6086 4.30664C11.6596 4.30664 11.758 4.30664 11.8127 4.37228C11.8528 4.41968 11.8528 4.48532 11.8528 4.5072C11.8236 5.20003 11.8783 5.89287 11.8601 6.5857C11.8491 6.96859 11.8601 7.35147 11.8674 7.63954C11.8747 7.90938 11.8674 8.17922 11.882 8.44906C11.9075 8.9377 11.9476 9.16742 11.8127 9.27317C11.7544 9.31693 11.707 9.30599 11.4664 9.2987C11.1093 9.28776 10.7557 9.30964 10.3985 9.30599C10.3475 9.30599 10.096 9.30235 10.0413 9.30235C10.0341 8.89394 10.0341 8.55117 10.0304 8.29956C10.0231 7.44992 10.0231 7.01599 10.0341 6.45808C10.045 6.0679 10.0596 5.74336 10.0705 5.52822C10.0669 5.40788 10.0669 5.01771 10.3475 4.69317C10.4897 4.52908 10.6427 4.4525 10.7266 4.40874C10.9416 4.30664 11.1639 4.30664 11.6086 4.30664Z" fill="#44B925"/>
<path d="M5.42991 10.6311C6.25936 10.4414 7.10458 10.5764 7.94033 10.5379C8.23048 10.525 8.52063 10.5379 8.81078 10.5379C8.91486 10.5379 8.99055 10.5732 8.97478 10.689C8.9117 11.1166 9.00947 11.5411 8.98424 11.9687C8.95901 12.3835 8.95901 12.8015 8.98424 13.2163C8.99686 13.4092 8.9527 13.5893 8.89593 13.7661C8.79501 14.0845 8.54586 14.2517 8.22102 14.3224C8.07595 14.3514 7.92141 14.361 7.77318 14.361C6.95004 14.3642 6.12375 14.3642 5.30061 14.361C5.00731 14.361 5.00731 14.361 4.93477 14.1038C4.93477 13.2035 4.92846 12.3063 4.93792 11.406C4.93792 11.0652 5.0893 10.7854 5.42991 10.6311Z" fill="#FB3834"/>
<path d="M5.77695 17.4077C5.79469 17.4077 6.14673 17.4126 6.59971 17.4172C7.24076 17.4238 8.65136 18.8416 8.64118 19.4826H6.57694L6.47675 19.4243C6.47675 19.5956 6.34918 19.5373 6.27264 19.53C5.9847 19.4753 5.69312 19.479 5.40154 19.4935C4.65436 19.5264 3.90718 19.5482 3.16365 19.4826C2.83562 19.4534 2.60965 19.2529 2.42376 19.0086C2.26339 18.7934 2.23788 18.5491 2.23788 18.2793C2.23788 16.4961 2.27797 14.7093 2.20872 12.9262C2.19779 12.6345 2.12854 12.5615 1.83695 12.5542C1.57453 12.5506 1.31575 12.5579 1.05333 12.5506C0.973144 12.547 0.874735 12.5688 0.838287 12.4594C0.914828 12.412 1.0023 12.4157 1.08613 12.4157L1.08641 12.4157C1.78976 12.4193 2.4931 12.423 3.19645 12.423C3.6156 12.423 4.10765 12.722 4.09307 13.331C4.06755 14.2025 4.08578 15.0776 4.08578 15.9528C4.08578 16.157 4.08578 16.3648 4.11494 16.569C4.17325 16.9629 4.43568 17.2655 4.81838 17.364C5.13183 17.4442 5.45621 17.4041 5.77695 17.4077Z" fill="#0098B8"/>
<path d="M8.65268 20.6312C8.65997 20.8427 8.60895 21.036 8.48867 21.2074C8.33559 21.4918 8.08774 21.6376 7.77429 21.6741C7.62486 21.6923 7.47178 21.7069 7.32234 21.7069C6.9688 21.7106 6.6189 21.696 6.26536 21.6996C4.54867 21.7179 2.83199 21.6923 1.1153 21.6887C1.03147 21.6887 0.943995 21.6923 0.867455 21.6486C0.772691 21.6559 0.692506 21.6231 0.612321 21.5793C0.225976 21.3605 0.0109343 21.0177 0.00728954 20.5838C-0.00364477 18.2318 0 15.8762 0.00364477 13.5205C0.00364477 12.9809 0.309805 12.6089 0.831008 12.4558C1.21371 12.4558 1.59641 12.4558 1.97911 12.4558C2.29256 12.4558 2.29256 12.4594 2.29256 12.7694C2.29256 14.651 2.29621 16.5325 2.28892 18.4141C2.28527 18.9064 2.71171 19.3185 3.14544 19.3768C3.82701 19.468 4.51223 19.406 5.19744 19.406C5.57285 19.406 5.94827 19.3513 6.32003 19.4388C6.3747 19.4534 6.42937 19.4497 6.4804 19.4206L6.49134 19.4169C6.54965 19.3878 6.62255 19.3805 6.66629 19.4133C6.76469 19.4899 6.87039 19.4716 6.97974 19.4716C7.20936 19.4753 7.43898 19.468 7.67224 19.4716C7.99298 19.4789 8.31372 19.4534 8.63446 19.4862L8.6454 19.4899C8.67455 19.8727 8.64175 20.252 8.65268 20.6312Z" fill="#0BBCEA"/>
<path d="M14.7357 17.4077C14.7179 17.4077 14.3659 17.4126 13.9129 17.4172C13.2719 17.4238 11.8613 18.8416 11.8715 19.4826H13.9357L14.0359 19.4243C14.0359 19.5956 14.1635 19.5373 14.24 19.53C14.5279 19.4753 14.8195 19.479 15.1111 19.4935C15.8583 19.5264 16.6055 19.5482 17.349 19.4826C17.677 19.4534 17.903 19.2529 18.0889 19.0086C18.2492 18.7934 18.2748 18.5491 18.2748 18.2793C18.2748 16.4961 18.2347 14.7093 18.3039 12.9262C18.3148 12.6345 18.3841 12.5615 18.6757 12.5542C18.9381 12.5506 19.1969 12.5579 19.4593 12.5506C19.5395 12.547 19.6379 12.5688 19.6743 12.4594C19.5978 12.412 19.5103 12.4157 19.4265 12.4157L19.4262 12.4157C18.7229 12.4193 18.0195 12.423 17.3162 12.423C16.897 12.423 16.405 12.722 16.4196 13.331C16.4451 14.2025 16.4269 15.0776 16.4269 15.9528C16.4269 16.157 16.4269 16.3648 16.3977 16.569C16.3394 16.9629 16.077 17.2655 15.6943 17.364C15.3808 17.4442 15.0564 17.4041 14.7357 17.4077Z" fill="#FFC000"/>
<path d="M11.86 20.6312C11.8527 20.8427 11.9037 21.036 12.024 21.2074C12.1771 21.4918 12.4249 21.6376 12.7384 21.6741C12.8878 21.6923 13.0409 21.7069 13.1903 21.7069C13.5439 21.7106 13.8938 21.696 14.2473 21.6996C15.964 21.7179 17.6807 21.6923 19.3974 21.6887C19.4812 21.6887 19.5687 21.6923 19.6452 21.6486C19.74 21.6559 19.8202 21.6231 19.9003 21.5793C20.2867 21.3605 20.5017 21.0177 20.5054 20.5838C20.5163 18.2318 20.5127 15.8762 20.509 13.5205C20.509 12.9809 20.2029 12.6089 19.6817 12.4558C19.299 12.4558 18.9163 12.4558 18.5336 12.4558C18.2201 12.4558 18.2201 12.4594 18.2201 12.7694C18.2201 14.651 18.2165 16.5325 18.2237 18.4141C18.2274 18.9064 17.801 19.3185 17.3672 19.3768C16.6857 19.468 16.0004 19.406 15.3152 19.406C14.9398 19.406 14.5644 19.3513 14.1926 19.4388C14.138 19.4534 14.0833 19.4497 14.0323 19.4206L14.0213 19.4169C13.963 19.3878 13.8901 19.3805 13.8464 19.4133C13.748 19.4899 13.6423 19.4716 13.5329 19.4716C13.3033 19.4753 13.0737 19.468 12.8404 19.4716C12.5197 19.4789 12.1989 19.4534 11.8782 19.4862L11.8673 19.4899C11.8381 19.8727 11.8709 20.252 11.86 20.6312Z" fill="#FED701"/>
</svg>
