<svg width="117" height="22" viewBox="0 0 117 22" fill="none" xmlns="http://www.w3.org/2000/svg">
<path d="M8.68547 2.21707C9.66955 2.22072 10.65 2.22072 11.6341 2.22436C11.7799 2.22436 11.8236 2.16602 11.82 2.02745C11.8127 1.73573 11.8127 1.44401 11.8163 1.15229C11.8236 0.49957 12.1954 0.087516 12.8369 0.021879C13.0665 0 13.2961 0 13.5294 0C15.3736 0.0036465 17.2179 0.0036465 19.0621 0.0036465C19.3318 0.0036465 19.5979 0.0109395 19.8458 0.131274C20.0098 0.20785 20.1556 0.302659 20.2285 0.477691C20.1993 0.532389 20.243 0.5725 20.2649 0.605319C20.4216 0.809523 20.4326 1.0429 20.4289 1.29086C20.4216 3.56628 20.4362 5.84169 20.4216 8.11711C20.4216 8.1791 20.3925 8.26661 20.4763 8.31767C20.3961 8.80265 20.0863 9.17459 19.6854 9.26575C19.5833 9.29857 19.4813 9.28034 19.3792 9.28034C18.7195 9.29493 18.0562 9.26211 17.3965 9.26211C17.371 9.26211 17.3491 9.26211 17.3236 9.26211C17.2835 9.25846 17.2325 9.25846 17.2325 9.20012C17.2325 9.14907 17.2689 9.12354 17.3126 9.11625C17.4329 9.09072 17.5532 9.10166 17.6771 9.10166C18.0161 9.09802 18.078 9.03967 18.0963 8.70419C18.0963 8.69325 18.0963 8.67867 18.0963 8.66773C18.0744 7.78163 18.1728 6.89553 18.1291 6.00943C18.0853 5.1598 18.1181 4.31016 18.0926 3.46053C18.0817 3.06671 17.9796 2.70206 17.5787 2.5015C17.4074 2.41763 17.2325 2.39575 17.0502 2.39575C15.7928 2.39575 14.5353 2.3921 13.2779 2.3994C12.9498 2.3994 12.6255 2.3447 12.2974 2.35928C11.984 2.37387 11.9074 2.43951 11.9002 2.74581C11.8965 3.09223 11.8965 3.43865 11.9002 3.78507C11.9002 3.92728 11.9257 4.0622 11.973 4.19712C12.0131 4.30652 11.9658 4.35392 11.8564 4.36486C11.5867 4.39403 11.317 4.45238 11.0436 4.44144C10.5443 4.51437 10.2819 4.78056 10.2199 5.28742C10.209 5.364 10.1908 5.44058 10.1908 5.5208C10.0923 6.32303 10.1179 7.12891 10.1179 7.93478C10.1179 8.17181 10.1142 8.40518 10.1652 8.63856C10.2053 8.82453 10.2126 9.02509 10.1616 9.2147C10.0996 9.29128 10.0122 9.28399 9.92833 9.28399C9.35975 9.28399 8.79116 9.28399 8.22258 9.28399C7.92735 9.25846 7.63213 9.28034 7.3369 9.28034C7.20569 9.28034 7.07083 9.28034 6.93598 9.28399C6.88495 9.28399 6.83392 9.28034 6.83028 9.2147C6.82663 9.15636 6.86673 9.12719 6.91775 9.11625C6.95784 9.10531 7.00158 9.10166 7.04532 9.10166C7.68315 9.10531 8.32099 9.09802 8.95518 9.06155C9.15564 9.05061 9.35246 9.09802 9.55292 9.09802C9.8445 9.09802 9.92833 9.02144 9.93198 8.73701C9.93562 8.37966 9.93927 8.01865 9.93198 7.6613C9.92833 7.39875 9.85179 7.31852 9.59301 7.31852C8.52874 7.31123 7.46811 7.31488 6.40384 7.31852C6.29814 7.31852 6.19973 7.3404 6.10497 7.38416C5.96282 7.44615 5.92637 7.42063 5.92637 7.25653C5.92637 6.57464 5.92637 5.89639 5.92637 5.21449C5.92637 5.14156 5.94824 5.06863 5.90815 4.99935C5.90815 4.79515 5.90451 4.59094 5.90451 4.38674C5.81339 4.22265 5.81339 4.04397 5.81703 3.86164C5.82068 3.65015 5.81703 3.43865 5.81703 3.22715C5.81703 2.86615 5.98105 2.59266 6.26169 2.38481C6.33094 2.33376 6.37833 2.26812 6.43664 2.20978C6.45851 2.19884 6.48038 2.19519 6.50225 2.19884C6.75374 2.19155 7.00523 2.19884 7.25672 2.20978C7.56288 2.22072 7.86904 2.23895 8.1752 2.16602C8.30276 2.13685 8.43762 2.1332 8.57248 2.16602C8.5907 2.17696 8.61257 2.18425 8.63079 2.19155C8.64902 2.19519 8.66724 2.20613 8.68547 2.21707Z" fill="#FED701"/>
<path d="M10.9709 4.33924C11.2078 4.26631 11.452 4.31372 11.6962 4.30642C11.8311 4.30278 11.8967 4.28819 11.8493 4.12045C11.7691 3.82509 11.8201 3.51513 11.8128 3.21247C11.8092 2.97545 11.8055 2.73843 11.8201 2.50141C11.8311 2.29356 11.8857 2.2498 12.0935 2.25709C13.7737 2.31908 15.454 2.28991 17.1342 2.29356C17.7684 2.29356 18.1547 2.71655 18.1875 3.32916C18.1948 3.46773 18.1912 3.60994 18.1875 3.74851C18.1657 4.68931 18.2276 5.6301 18.224 6.5709C18.2203 7.39136 18.1948 8.20818 18.1803 9.02864C18.1766 9.14533 18.1256 9.19273 18.0126 9.18909C17.7903 9.18544 17.5643 9.18909 17.342 9.20003C18.1219 9.24378 18.9056 9.2766 19.6855 9.26202C19.6017 9.30942 19.5069 9.29848 19.4195 9.29848C18.7015 9.29848 17.9871 9.2766 17.2691 9.30578C16.7223 9.32765 16.3615 8.87913 16.3652 8.38686C16.3761 7.39866 16.3724 6.40681 16.3724 5.41496C16.3724 5.08313 16.2777 4.80235 16.0262 4.56533C15.833 4.38665 15.6107 4.32101 15.3628 4.31007C15.1587 4.29913 14.951 4.31372 14.7432 4.30642C14.5938 4.29913 14.5391 4.36477 14.5428 4.51063C14.5501 5.0102 14.5537 5.50612 14.5537 6.00569C14.5537 6.80063 14.5573 7.59557 14.5464 8.3905C14.5428 8.81714 14.2293 9.15991 13.7774 9.26202C13.7154 9.29484 13.6462 9.2766 13.5806 9.2766C12.7787 9.2766 11.9805 9.2839 11.1786 9.25837C10.9053 9.25108 10.6356 9.29119 10.3622 9.2766C10.3075 9.27296 10.2274 9.30578 10.2164 9.21461C10.2055 9.12345 10.2784 9.11251 10.3476 9.09792C10.5262 9.06875 10.7048 9.04687 10.8907 9.07605C11.0875 9.10886 11.2916 9.10157 11.4885 9.08334C11.6561 9.06875 11.7217 8.99218 11.7436 8.82808C11.7545 8.75515 11.7509 8.68222 11.7509 8.60929C11.7509 7.36584 11.7509 6.12238 11.7509 4.87528C11.7509 4.81329 11.7509 4.75494 11.7472 4.69295C11.729 4.50334 11.6634 4.4377 11.4702 4.42676C11.3609 4.41947 11.2515 4.42676 11.1422 4.41947C11.0802 4.42311 10.9964 4.4377 10.9709 4.33924Z" fill="#FFC000"/>
<path d="M14.5462 4.33936C14.5498 4.72588 14.5498 5.04678 14.5535 5.27286C14.5571 5.90006 14.5608 6.12249 14.5644 6.60383C14.5681 7.56651 14.5608 7.39512 14.5644 7.50452C14.5753 7.76706 14.5972 8.02961 14.5462 8.38697C14.5207 8.58388 14.5025 8.68598 14.4441 8.79902C14.2765 9.11262 13.9302 9.22566 13.7808 9.26578C13.7443 9.26942 13.6714 9.28036 13.584 9.28036C12.7821 9.28036 11.9839 9.28765 11.1821 9.26213C10.9087 9.25484 10.639 9.29495 10.3656 9.28036C10.311 9.27672 10.2308 9.30953 10.2198 9.21837C10.2089 9.12721 10.2818 9.11627 10.3511 9.10168C10.5297 9.07251 10.7082 9.05063 10.8941 9.0798C11.0909 9.11262 11.2951 9.10533 11.4919 9.0871C11.6595 9.07251 11.7251 8.99594 11.747 8.83184C11.7579 8.75891 11.7543 8.68598 11.7543 8.61305C11.7543 8.55106 11.747 7.32948 11.7543 4.87904C11.7543 4.76964 11.7543 4.58002 11.7579 4.33936C12.6874 4.343 13.6168 4.33936 14.5462 4.33936Z" fill="#95D131"/>
<path d="M15.5627 13.3623C15.5627 13.9674 15.5722 14.5725 15.5563 15.1776C15.5467 15.5895 15.2561 15.8778 14.7964 15.9918C14.7453 16.0172 14.691 16.0045 14.6399 16.0045C13.1552 16.0045 11.6705 16.0045 10.1889 16.0045C9.97502 16.0045 9.96225 15.9886 9.98141 15.7764C9.99099 15.656 9.99418 15.5324 9.99418 15.4121C9.99418 13.8882 9.99418 12.3612 9.99418 10.8373C9.99418 10.5269 9.99418 10.5269 10.3103 10.5269C10.7477 10.5269 11.182 10.5269 11.6194 10.5269C11.7184 10.5807 11.6832 10.6758 11.6832 10.7518C11.6864 11.5597 11.6864 12.3643 11.6864 13.1722C11.6864 13.2926 11.6896 13.413 11.7152 13.5334C11.795 13.9421 12.0696 14.1923 12.4911 14.224C12.6092 14.2335 12.7241 14.2304 12.8423 14.2304C13.5767 14.2304 14.3078 14.2304 15.0422 14.2304C15.0997 14.2304 15.1604 14.2335 15.2178 14.2272C15.3871 14.2145 15.4445 14.1607 15.4541 13.9927C15.4637 13.8248 15.4509 13.6538 15.4605 13.4859C15.4605 13.4288 15.4477 13.3401 15.5627 13.3623Z" fill="#4FB92B"/>
<path d="M4.93541 13.3623C4.93541 13.9674 4.92602 14.5725 4.94167 15.1776C4.95106 15.5895 5.23592 15.8778 5.68669 15.9918C5.73678 16.0172 5.78999 16.0045 5.84008 16.0045C7.29568 16.0045 8.75128 16.0045 10.2038 16.0045C10.4135 16.0045 10.426 15.9886 10.4072 15.7764C10.3978 15.656 10.3947 15.5324 10.3947 15.4121C10.3947 13.8882 10.3947 12.3612 10.3947 10.8373C10.3947 10.5269 10.3947 10.5269 10.0848 10.5269C9.65595 10.5269 9.23022 10.5269 8.80137 10.5269C8.70433 10.5807 8.73876 10.6758 8.73876 10.7518C8.73563 11.5597 8.73563 12.3643 8.73563 13.1722C8.73563 13.2926 8.7325 13.413 8.70746 13.5334C8.6292 13.9421 8.35999 14.1923 7.94679 14.224C7.83097 14.2335 7.71828 14.2304 7.60245 14.2304C6.88248 14.2304 6.16563 14.2304 5.44565 14.2304C5.38931 14.2304 5.32983 14.2335 5.27349 14.2272C5.10758 14.2145 5.05123 14.1607 5.04184 13.9927C5.03245 13.8248 5.04497 13.6538 5.03558 13.4859C5.03558 13.4288 5.04497 13.3401 4.93541 13.3623Z" fill="#EC202A"/>
<path d="M11.6496 10.5269C12.709 10.5269 13.7683 10.5301 14.8276 10.5301C15.3366 10.6945 15.5561 10.9782 15.5625 11.5198C15.5689 12.1453 15.5625 12.7708 15.5625 13.3962C15.4989 13.6445 15.5402 13.8959 15.5339 14.1474C15.5243 14.3634 15.5307 14.3634 15.3112 14.3634C14.4077 14.3634 13.5011 14.3634 12.5976 14.3634C11.9964 14.3634 11.6305 14.0088 11.6242 13.4027C11.6146 12.5064 11.621 11.6101 11.6242 10.7171C11.621 10.6526 11.6401 10.5881 11.6496 10.5269Z" fill="#9ACD2B"/>
<path d="M6.48026 2.29718C6.10485 2.56702 5.86794 2.90615 5.89709 3.39842C5.91896 3.72661 5.90074 4.05479 5.90074 4.38298C5.87158 4.34287 5.83149 4.3137 5.78046 4.3137C5.45972 4.31734 5.13534 4.27723 4.82189 4.35745C4.43919 4.45591 4.17676 4.75857 4.11845 5.15239C4.08929 5.35659 4.08929 5.56445 4.08929 5.76865C4.08929 6.64381 4.07106 7.51897 4.09658 8.39048C4.11116 8.99945 3.61911 9.29846 3.19996 9.29846C2.49652 9.29846 1.79308 9.30211 1.08964 9.30575C1.00581 9.30575 0.918337 9.3094 0.841797 9.26199C0.878245 9.1526 0.976653 9.17448 1.05684 9.17083C1.31926 9.16354 1.57804 9.17083 1.84046 9.16719C2.13205 9.15989 2.2013 9.08696 2.21223 8.79524C2.28148 7.0121 2.24139 5.22532 2.24139 3.44218C2.24139 3.17234 2.2669 2.92803 2.42727 2.71288C2.61316 2.46857 2.83913 2.26801 3.16716 2.23884C3.91069 2.1732 4.65787 2.19508 5.40505 2.2279C5.69663 2.24248 5.98821 2.24613 6.27615 2.19143C6.35269 2.18414 6.48026 2.1258 6.48026 2.29718Z" fill="#0098B8"/>
<path d="M20.4762 8.31776C20.4361 8.38704 20.396 8.45632 20.3377 8.55113C20.4033 8.03333 20.3669 7.5447 20.3705 7.05972C20.3741 5.14895 20.3705 3.23818 20.3741 1.32742C20.3741 1.07581 20.3669 0.831494 20.2174 0.612704C20.1919 0.576239 20.119 0.514248 20.2284 0.477783C20.3669 0.634583 20.4653 0.813261 20.4798 1.0284C20.458 1.07581 20.4653 1.12321 20.4653 1.17062C20.4653 2.67662 20.4653 4.18263 20.4653 5.69228C20.4653 5.73968 20.4543 5.79073 20.4798 5.83449C20.4762 6.66225 20.4762 7.49 20.4762 8.31776Z" fill="#FED701"/>
<path d="M20.4763 5.83439C20.4398 5.74687 20.4435 5.65571 20.4435 5.56455C20.4435 4.13512 20.4435 2.70569 20.4435 1.27627C20.4435 1.1924 20.4398 1.10488 20.4726 1.02466C20.4763 1.7102 20.4799 2.39574 20.4799 3.08128C20.4836 4.0002 20.4799 4.91912 20.4763 5.83439Z" fill="#FED701"/>
<path d="M8.64188 2.22435C8.64188 1.91075 8.62731 1.59715 8.64188 1.28356C8.65282 1.01007 8.59815 0.75846 8.49609 0.510498C8.67104 0.652712 8.67833 0.856915 8.68198 1.05747C8.68927 1.444 8.68562 1.83053 8.68927 2.21706C8.67104 2.22071 8.65646 2.22435 8.64188 2.22435Z" fill="#6C6C6C"/>
<path d="M10.096 5.43701C10.096 6.68776 10.096 7.94216 10.096 9.19291C10.0522 9.10904 10.0595 9.01423 10.0595 8.92671C10.0595 7.85464 10.0595 6.77892 10.0595 5.70685C10.0595 5.61204 10.0522 5.52088 10.096 5.43701Z" fill="#929292"/>
<path d="M6.49121 2.30102C7.1983 2.15151 7.91632 2.25726 8.63069 2.23173C8.5578 2.27185 8.47761 2.26455 8.40107 2.26455C7.98557 2.26455 7.56642 2.26455 7.15091 2.26455C6.99419 2.26455 6.83746 2.24997 6.68803 2.31925C6.62242 2.34842 6.55317 2.33384 6.49121 2.30102Z" fill="#B4B4B4"/>
<path d="M8.65659 1.09047C8.66388 0.878971 8.61285 0.685706 8.49258 0.514321C8.3395 0.229894 8.09165 0.084034 7.7782 0.047569C7.62877 0.0293365 7.47569 0.0147505 7.32625 0.0147505C6.97271 0.011104 6.62281 0.02569 6.26927 0.0220435C4.55258 0.00381101 2.83589 0.0293365 1.11921 0.032983C1.03538 0.032983 0.947902 0.0293365 0.871362 0.0730945C0.776598 0.0658015 0.696413 0.09862 0.616228 0.142378C0.229882 0.361168 0.0148406 0.703939 0.0111958 1.13787C0.000261479 3.48986 0.00390625 5.8455 0.00755102 8.20114C0.00755102 8.74082 0.313712 9.11277 0.834914 9.26592C1.21761 9.26592 1.60032 9.26592 1.98302 9.26592C2.29647 9.26592 2.29647 9.26227 2.29647 8.95232C2.29647 7.07073 2.30011 5.18913 2.29282 3.30754C2.28918 2.81526 2.71562 2.40321 3.14934 2.34486C3.83092 2.2537 4.51613 2.31569 5.20135 2.31569C5.57676 2.31569 5.95217 2.37039 6.32394 2.28287C6.37861 2.26829 6.43328 2.27193 6.48431 2.30111L6.49524 2.30475C6.55356 2.33392 6.62645 2.34122 6.67019 2.3084C6.7686 2.23182 6.8743 2.25005 6.98364 2.25005C7.21326 2.24641 7.44288 2.2537 7.67615 2.25005C7.99689 2.24276 8.31763 2.26829 8.63837 2.23547L8.6493 2.23182C8.67846 1.84894 8.64566 1.4697 8.65659 1.09047Z" fill="#0BBCEA"/>
<path d="M5.91561 7.16895H10.0962V9.30579H6.69924C6.69924 9.30579 5.95206 9.06148 5.91561 8.37958C5.87917 7.69769 5.91561 7.16895 5.91561 7.16895Z" fill="#FDBE00"/>
<path d="M11.6087 4.30664C11.6597 4.30664 11.7581 4.30664 11.8128 4.37228C11.8529 4.41968 11.8529 4.48532 11.8529 4.5072C11.8237 5.20003 11.8784 5.89287 11.8601 6.5857C11.8492 6.96859 11.8601 7.35147 11.8674 7.63954C11.8747 7.90938 11.8674 8.17922 11.882 8.44906C11.9075 8.9377 11.9476 9.16742 11.8128 9.27317C11.7544 9.31693 11.7071 9.30599 11.4665 9.2987C11.1093 9.28776 10.7558 9.30964 10.3986 9.30599C10.3476 9.30599 10.0961 9.30235 10.0414 9.30235C10.0341 8.89394 10.0341 8.55117 10.0305 8.29956C10.0232 7.44992 10.0232 7.01599 10.0341 6.45808C10.045 6.0679 10.0596 5.74336 10.0706 5.52822C10.0669 5.40788 10.0669 5.01771 10.3476 4.69317C10.4897 4.52908 10.6428 4.4525 10.7266 4.40874C10.9417 4.30664 11.164 4.30664 11.6087 4.30664Z" fill="#44B925"/>
<path d="M5.42982 10.6311C6.25927 10.4414 7.10449 10.5764 7.94024 10.5379C8.23039 10.525 8.52054 10.5379 8.81069 10.5379C8.91476 10.5379 8.99046 10.5732 8.97469 10.689C8.91161 11.1166 9.00938 11.5411 8.98415 11.9687C8.95892 12.3835 8.95892 12.8015 8.98415 13.2163C8.99676 13.4092 8.95261 13.5893 8.89584 13.7661C8.79492 14.0845 8.54577 14.2517 8.22093 14.3224C8.07586 14.3514 7.92132 14.361 7.77309 14.361C6.94995 14.3642 6.12366 14.3642 5.30052 14.361C5.00721 14.361 5.00721 14.361 4.93468 14.1038C4.93468 13.2035 4.92837 12.3063 4.93783 11.406C4.93783 11.0652 5.08921 10.7854 5.42982 10.6311Z" fill="#FB3834"/>
<path d="M5.77704 17.4077C5.79478 17.4077 6.14682 17.4126 6.5998 17.4172C7.24085 17.4238 8.65145 18.8416 8.64127 19.4826H6.57703L6.47684 19.4243C6.47684 19.5956 6.34927 19.5373 6.27273 19.53C5.98479 19.4753 5.69321 19.479 5.40163 19.4935C4.65445 19.5264 3.90728 19.5482 3.16374 19.4826C2.83571 19.4534 2.60974 19.2529 2.42385 19.0086C2.26348 18.7934 2.23797 18.5491 2.23797 18.2793C2.23797 16.4961 2.27806 14.7093 2.20881 12.9262C2.19788 12.6345 2.12863 12.5615 1.83705 12.5542C1.57462 12.5506 1.31584 12.5579 1.05342 12.5506C0.973235 12.547 0.874827 12.5688 0.838379 12.4594C0.914919 12.412 1.00239 12.4157 1.08622 12.4157L1.0865 12.4157C1.78985 12.4193 2.4932 12.423 3.19655 12.423C3.61569 12.423 4.10774 12.722 4.09316 13.331C4.06765 14.2025 4.08587 15.0776 4.08587 15.9528C4.08587 16.157 4.08587 16.3648 4.11503 16.569C4.17334 16.9629 4.43577 17.2655 4.81847 17.364C5.13192 17.4442 5.4563 17.4041 5.77704 17.4077Z" fill="#0098B8"/>
<path d="M8.65268 20.6312C8.65997 20.8427 8.60895 21.036 8.48867 21.2074C8.33559 21.4918 8.08774 21.6376 7.77429 21.6741C7.62486 21.6923 7.47178 21.7069 7.32234 21.7069C6.9688 21.7106 6.6189 21.696 6.26536 21.6996C4.54867 21.7179 2.83199 21.6923 1.1153 21.6887C1.03147 21.6887 0.943995 21.6923 0.867455 21.6486C0.772691 21.6559 0.692506 21.6231 0.612321 21.5793C0.225976 21.3605 0.0109343 21.0177 0.00728954 20.5838C-0.00364477 18.2318 0 15.8762 0.00364477 13.5205C0.00364477 12.9809 0.309805 12.6089 0.831008 12.4558C1.21371 12.4558 1.59641 12.4558 1.97911 12.4558C2.29256 12.4558 2.29256 12.4594 2.29256 12.7694C2.29256 14.651 2.29621 16.5325 2.28892 18.4141C2.28527 18.9064 2.71171 19.3185 3.14544 19.3768C3.82701 19.468 4.51223 19.406 5.19744 19.406C5.57285 19.406 5.94827 19.3513 6.32003 19.4388C6.3747 19.4534 6.42937 19.4497 6.4804 19.4206L6.49134 19.4169C6.54965 19.3878 6.62255 19.3805 6.66629 19.4133C6.76469 19.4899 6.87039 19.4716 6.97974 19.4716C7.20936 19.4753 7.43898 19.468 7.67224 19.4716C7.99298 19.4789 8.31372 19.4534 8.63446 19.4862L8.6454 19.4899C8.67455 19.8727 8.64175 20.252 8.65268 20.6312Z" fill="#0BBCEA"/>
<path d="M14.7357 17.4077C14.7179 17.4077 14.3659 17.4126 13.9129 17.4172C13.2718 17.4238 11.8612 18.8416 11.8714 19.4826H13.9357L14.0359 19.4243C14.0359 19.5956 14.1634 19.5373 14.24 19.53C14.5279 19.4753 14.8195 19.479 15.1111 19.4935C15.8582 19.5264 16.6054 19.5482 17.349 19.4826C17.677 19.4534 17.903 19.2529 18.0888 19.0086C18.2492 18.7934 18.2747 18.5491 18.2747 18.2793C18.2747 16.4961 18.2346 14.7093 18.3039 12.9262C18.3148 12.6345 18.3841 12.5615 18.6756 12.5542C18.9381 12.5506 19.1969 12.5579 19.4593 12.5506C19.5395 12.547 19.6379 12.5688 19.6743 12.4594C19.5978 12.412 19.5103 12.4157 19.4265 12.4157L19.4262 12.4157C18.7228 12.4193 18.0195 12.423 17.3161 12.423C16.897 12.423 16.405 12.722 16.4195 13.331C16.445 14.2025 16.4268 15.0776 16.4268 15.9528C16.4268 16.157 16.4268 16.3648 16.3977 16.569C16.3394 16.9629 16.0769 17.2655 15.6942 17.364C15.3808 17.4442 15.0564 17.4041 14.7357 17.4077Z" fill="#FFC000"/>
<path d="M11.86 20.6312C11.8527 20.8427 11.9037 21.036 12.024 21.2074C12.1771 21.4918 12.425 21.6376 12.7384 21.6741C12.8878 21.6923 13.0409 21.7069 13.1904 21.7069C13.5439 21.7106 13.8938 21.696 14.2473 21.6996C15.964 21.7179 17.6807 21.6923 19.3974 21.6887C19.4812 21.6887 19.5687 21.6923 19.6452 21.6486C19.74 21.6559 19.8202 21.6231 19.9004 21.5793C20.2867 21.3605 20.5018 21.0177 20.5054 20.5838C20.5163 18.2318 20.5127 15.8762 20.5091 13.5205C20.5091 12.9809 20.2029 12.6089 19.6817 12.4558C19.299 12.4558 18.9163 12.4558 18.5336 12.4558C18.2201 12.4558 18.2201 12.4594 18.2201 12.7694C18.2201 14.651 18.2165 16.5325 18.2238 18.4141C18.2274 18.9064 17.801 19.3185 17.3673 19.3768C16.6857 19.468 16.0005 19.406 15.3153 19.406C14.9398 19.406 14.5644 19.3513 14.1927 19.4388C14.138 19.4534 14.0833 19.4497 14.0323 19.4206L14.0214 19.4169C13.963 19.3878 13.8901 19.3805 13.8464 19.4133C13.748 19.4899 13.6423 19.4716 13.533 19.4716C13.3033 19.4753 13.0737 19.468 12.8405 19.4716C12.5197 19.4789 12.199 19.4534 11.8782 19.4862L11.8673 19.4899C11.8381 19.8727 11.8709 20.252 11.86 20.6312Z" fill="#FED701"/>
<path d="M110.662 6.19922C113.819 6.19922 116.099 8.33892 116.099 11.338C116.099 14.302 113.889 16.319 111.047 16.319C109.978 16.319 108.96 15.9857 108.171 15.3719V19.1076H105.242V11.4432C105.242 8.33892 107.505 6.19922 110.662 6.19922ZM110.662 13.846C112.117 13.846 113.17 12.8288 113.17 11.2679C113.17 9.72447 112.135 8.68969 110.679 8.68969C109.223 8.68969 108.171 9.72447 108.171 11.2854C108.171 12.8288 109.206 13.846 110.662 13.846Z" fill="#02213D"/>
<path d="M97.683 16.3188C94.2279 16.3188 92.0181 14.2317 92.0181 10.8818V3.8313H95.0522V10.6012C95.0522 12.4778 96.0344 13.5477 97.683 13.5477C99.3667 13.5477 100.366 12.4778 100.366 10.6012V3.8313H103.366V10.8818C103.366 14.2317 101.191 16.3188 97.683 16.3188Z" fill="#02213D"/>
<path d="M90.0179 16.1085H87.124V3.16504H90.0179V16.1085Z" fill="#02213D"/>
<path d="M84.9481 16.1085H82.0542V3.16504H84.9481V16.1085Z" fill="#02213D"/>
<path d="M78.4228 5.63793C77.5459 5.63793 76.8794 4.97146 76.8794 4.12961C76.8794 3.27022 77.5459 2.60376 78.4228 2.60376C79.3173 2.60376 79.9662 3.27022 79.9662 4.12961C79.9662 4.97146 79.3173 5.63793 78.4228 5.63793ZM79.8785 16.1084H76.9846V6.40963H79.8785V16.1084Z" fill="#02213D"/>
<path d="M72.6726 11.0223C74.023 11.9869 74.935 13.5829 74.935 15.5823V16.1085H71.9184V15.7051C71.9184 13.7233 70.8485 12.1974 69.0947 12.1974H68.2178V16.0734H65.1836V3.16504H68.2178V9.72446H69.0947C70.7433 9.72446 71.4449 8.79492 71.4449 6.81306V6.40967H74.479V6.93583C74.479 8.84753 73.795 10.198 72.6726 11.0223Z" fill="#02213D"/>
<path d="M58.527 16.3188C56.4048 16.3188 54.4229 15.6348 53.1602 14.6175L54.4405 12.4252C55.7383 13.3021 57.2291 13.8984 58.7199 13.8984C59.895 13.8984 60.6667 13.4074 60.6667 12.7409C60.6667 11.8815 59.8423 11.6184 58.1762 11.2677C55.3525 10.6714 53.4934 9.65411 53.4934 7.33902C53.4934 4.88363 55.6506 3.62085 58.527 3.62085C60.3685 3.62085 61.8944 4.09439 63.2448 5.04147L61.8417 7.19872C60.8771 6.56733 59.6494 6.04117 58.3691 6.04117C57.2291 6.04117 56.51 6.40948 56.51 7.23379C56.51 7.93533 57.2116 8.33872 58.983 8.72457C62.0522 9.3735 63.6658 10.2329 63.6658 12.4778C63.6658 14.8806 61.5085 16.3188 58.527 16.3188Z" fill="#02213D"/>
<path d="M44.3522 16.2837C40.5112 16.2837 38.7749 14.7228 38.7749 12.1271V11.8465H41.5635V12.1271C41.5635 13.3197 41.8968 13.7582 44.2294 13.7582C46.4393 13.7582 47.1233 13.4074 47.1233 12.3902C47.1233 11.5132 46.562 11.1449 45.4571 11.1449H42.0722V8.98769H45.2116C46.2288 8.98769 46.6848 8.61938 46.6848 7.88276C46.6848 7.05845 46.1937 6.70768 44.1943 6.70768C42.0897 6.70768 41.5635 7.14614 41.5635 8.33877V8.42646H38.7749V8.33877C38.7749 5.86583 40.5989 4.18213 44.4223 4.18213C47.5617 4.18213 49.298 5.25198 49.298 7.32153C49.298 8.672 48.4913 9.584 46.9654 9.77693V9.96985C48.6842 10.2154 49.8067 11.0923 49.8067 12.8111C49.8067 15.0911 47.7722 16.2837 44.3522 16.2837Z" fill="#02213D"/>
<path d="M32.7401 16.2837C29.1798 16.2837 27.1804 14.8806 27.1804 12.1446V12.0394H29.8112V12.3551C29.8112 13.4425 30.3549 13.881 32.7401 13.881C34.8448 13.881 35.3359 13.5653 35.3359 12.776C35.3359 12.0569 34.9325 11.7939 33.7223 11.5834L30.4251 11.1099C28.3204 10.7766 27.0752 9.72431 27.0752 7.81261C27.0752 6.04122 28.5134 4.18213 32.4595 4.18213C36.0725 4.18213 37.7562 5.84829 37.7562 8.32123V8.42646H35.1079V8.18092C35.1079 7.05845 34.5291 6.58491 32.1965 6.58491C30.3023 6.58491 29.7235 6.95322 29.7235 7.70738C29.7235 8.39138 30.1094 8.63692 31.0915 8.81231L34.3888 9.33846C37.0196 9.75939 37.9666 11.0397 37.9666 12.6533C37.9666 14.565 36.4759 16.2837 32.7401 16.2837Z" fill="#02213D"/>
</svg>
