<svg width="144" height="144" viewBox="0 0 144 144" fill="none" xmlns="http://www.w3.org/2000/svg">
<g filter="url(#filter0_d_2121_5314)">
<circle cx="72" cy="72" r="56" fill="white"/>
</g>
<path d="M72 47C58.2 47 47 58.2 47 72C47 85.8 58.2 97 72 97C85.8 97 97 85.8 97 72C97 58.2 85.8 47 72 47ZM78.65 76.325L75.45 78.175L72.25 80.025C68.125 82.4 64.75 80.45 64.75 75.7V72V68.3C64.75 63.525 68.125 61.6 72.25 63.975L75.45 65.825L78.65 67.675C82.775 70.05 82.775 73.95 78.65 76.325Z" fill="#222222"/>
<defs>
<filter id="filter0_d_2121_5314" x="0" y="0" width="144" height="144" filterUnits="userSpaceOnUse" color-interpolation-filters="sRGB">
<feFlood flood-opacity="0" result="BackgroundImageFix"/>
<feColorMatrix in="SourceAlpha" type="matrix" values="0 0 0 0 0 0 0 0 0 0 0 0 0 0 0 0 0 0 127 0" result="hardAlpha"/>
<feOffset/>
<feGaussianBlur stdDeviation="8"/>
<feComposite in2="hardAlpha" operator="out"/>
<feColorMatrix type="matrix" values="0 0 0 0 0 0 0 0 0 0 0 0 0 0 0 0 0 0 0.25 0"/>
<feBlend mode="normal" in2="BackgroundImageFix" result="effect1_dropShadow_2121_5314"/>
<feBlend mode="normal" in="SourceGraphic" in2="effect1_dropShadow_2121_5314" result="shape"/>
</filter>
</defs>
</svg>
